<svg xmlns="http://www.w3.org/2000/svg" viewBox="0 0 37 28.15"><defs><style>.cls-1{fill:#b8ff1d;}</style></defs><g id="Слой_2" data-name="Слой 2"><g id="Слой_1-2" data-name="Слой 1"><path class="cls-1" d="M0,21.74v-3c0-.15.05-.31.06-.46a27.66,27.66,0,0,1,.4-3.4,32.2,32.2,0,0,1,5-12.3.84.84,0,0,1,.38-.32A31.29,31.29,0,0,1,13,0a.31.31,0,0,1,.4.19c.23.48.5.94.7,1.43a.42.42,0,0,0,.54.3,22.9,22.9,0,0,1,3.2-.27,25.58,25.58,0,0,1,4.54.27.37.37,0,0,0,.48-.27c.22-.5.48-1,.71-1.46.09-.19.2-.22.4-.19A31.26,31.26,0,0,1,31.1,2.22a.86.86,0,0,1,.4.33,33.13,33.13,0,0,1,4.06,8.3,31.23,31.23,0,0,1,1.3,12.41.49.49,0,0,1-.24.37,31,31,0,0,1-8.81,4.47.41.41,0,0,1-.56-.18,27.83,27.83,0,0,1-1.57-2.56c-.22-.41-.22-.41.22-.59a17.68,17.68,0,0,0,2.4-1.16c.09-.05.26-.07.19-.25a.91.91,0,0,0-.95-.39,21.7,21.7,0,0,1-17.83.11.82.82,0,0,0-1.05.11c-.24.22-.23.3.05.44a19.71,19.71,0,0,0,2.5,1.19c.25.1.28.19.16.42A25.85,25.85,0,0,1,9.71,28a.38.38,0,0,1-.51.16A31.25,31.25,0,0,1,.39,23.65a.59.59,0,0,1-.26-.48A13.81,13.81,0,0,0,0,21.74Zm28-6.49a3.56,3.56,0,0,0-.24-1.18,3.18,3.18,0,0,0-5.21-1.45,4,4,0,0,0,0,5.7,3,3,0,0,0,4.37-.06A4,4,0,0,0,28,15.25Zm-12.29.21a4.19,4.19,0,0,0-.37-1.71A3.16,3.16,0,0,0,10,12.82a4,4,0,0,0,.17,5.5,3,3,0,0,0,4.37-.05A3.92,3.92,0,0,0,15.69,15.46Z"/></g></g></svg>