<svg xmlns="http://www.w3.org/2000/svg" viewBox="0 0 37 28.2"><defs><style>.cls-1{fill:#b8ff1d;}</style></defs><g id="Слой_2" data-name="Слой 2"><g id="Слой_1-2" data-name="Слой 1"><path class="cls-1" d="M32.37,0H4.63A4.65,4.65,0,0,0,0,4.63v19A4.64,4.64,0,0,0,4.63,28.2H32.37A4.64,4.64,0,0,0,37,23.58V4.63A4.65,4.65,0,0,0,32.37,0Zm0,23.81a1.22,1.22,0,0,1-.81.36,1,1,0,0,1-.77-.32l-9-8.48L19.23,17.5a1.14,1.14,0,0,1-.73.27,1.06,1.06,0,0,1-.73-.27l-2.53-2.13-9,8.48a1,1,0,0,1-.77.32,1.13,1.13,0,0,1-.81-.36,1.14,1.14,0,0,1,0-1.59l8.84-8.35L4.72,6.44A1.12,1.12,0,1,1,6.17,4.72L18.5,15.14,30.83,4.72a1.12,1.12,0,1,1,1.45,1.72l-8.79,7.43,8.84,8.3a1.2,1.2,0,0,1,.05,1.63Z"/></g></g></svg>