<svg xmlns="http://www.w3.org/2000/svg" viewBox="0 0 37 36.09"><defs><style>.cls-1{fill:#b8ff1d;}</style></defs><g id="Слой_2" data-name="Слой 2"><g id="Слой_1-2" data-name="Слой 1"><path class="cls-1" d="M37,19.48c-.07.57-.12,1.15-.2,1.72a17.36,17.36,0,0,1-2.55,7,18.62,18.62,0,0,1-5.82,5.93,17.86,17.86,0,0,1-4,1.89.91.91,0,0,1-1.32-1c0-1.61,0-3.23,0-4.84a5.29,5.29,0,0,0-.64-2.81,4.33,4.33,0,0,0-.6-.74,20.08,20.08,0,0,0,2.2-.39,7.82,7.82,0,0,0,4.73-3,8.73,8.73,0,0,0,1.4-4.05,10.31,10.31,0,0,0-.07-3.37,6.66,6.66,0,0,0-1.48-3,.6.6,0,0,1-.13-.67,6.44,6.44,0,0,0-.26-4.41c-.05-.15-.16-.16-.28-.18A3.79,3.79,0,0,0,26.13,8,13.55,13.55,0,0,0,23.38,9.4a.62.62,0,0,1-.54.09,17,17,0,0,0-8.68,0,.66.66,0,0,1-.57-.11A12.37,12.37,0,0,0,9.84,7.67l-.07,0c-.85-.18-1-.08-1.25.74a6.13,6.13,0,0,0,0,4,.32.32,0,0,1-.09.38,7.58,7.58,0,0,0-1.7,6,10.3,10.3,0,0,0,1,3.84,6.93,6.93,0,0,0,3.93,3.32,14.06,14.06,0,0,0,3.34.75.15.15,0,0,1,0,.1,3.91,3.91,0,0,0-1,2.14c0,.11,0,.24-.17.29A4.19,4.19,0,0,1,10,29.13a3.94,3.94,0,0,1-1.34-1.44,4.14,4.14,0,0,0-2.29-1.88,1.94,1.94,0,0,0-1.17,0c-.26.07-.33.21-.18.45a1.55,1.55,0,0,0,.55.56,4.93,4.93,0,0,1,2,2.42,4.49,4.49,0,0,0,1,1.62,4.4,4.4,0,0,0,2.68,1,8.13,8.13,0,0,0,2.41-.08c.27-.06.31,0,.31.29,0,1,0,2,0,2.92a1,1,0,0,1-1.44,1A18.3,18.3,0,0,1,1.41,25.59,17.62,17.62,0,0,1,.13,16.43,18,18,0,0,1,6.24,4.63,17.79,17.79,0,0,1,16.54.1,18.48,18.48,0,0,1,35.18,10.46,17.72,17.72,0,0,1,36.94,17a1.55,1.55,0,0,0,.06.31Z"/></g></g></svg>