<svg xmlns="http://www.w3.org/2000/svg" viewBox="0 0 37 36.99"><defs><style>.cls-1{fill:#b8ff1d;}</style></defs><g id="Слой_2" data-name="Слой 2"><g id="Слой_1-2" data-name="Слой 1"><path class="cls-1" d="M36.62,31.08A9.7,9.7,0,0,1,28,37c-.47,0-7.81.39-18.37-9.63C1.14,19.31.1,10.64,0,9S.38,3.37,5.91.38C6.6,0,8-.16,8.31.19c.16.16,4.8,7.8,4.92,8.06a1.6,1.6,0,0,1,.19.74,2.16,2.16,0,0,1-.75,1.31,12.27,12.27,0,0,1-1.62,1.44,15.88,15.88,0,0,0-1.63,1.39,2,2,0,0,0-.74,1.2c0,.82.7,3.74,5.79,8.21s7.54,5.73,7.78,5.82a1.66,1.66,0,0,0,.58.13A2,2,0,0,0,24,27.75c.49-.5,2.13-2.75,2.66-3.25a2.17,2.17,0,0,1,1.3-.75,1.61,1.61,0,0,1,.75.19c.25.12,7.91,4.6,8,4.75.4.4.12,1.67-.18,2.39"/></g></g></svg>